{
  "version": "0.6.1",
  "oversampleFactor": 1.0,
  "oversampleQuality": 7.0,
  "oversampleNumIn": 8.0,
  "oversampleNumOut": 8.0,
  "idleDetect": 0.0,
  "modules": [
    {
      "plugin": "Core",
      "version": "0.6.1",
      "vst2_unique_param_base_id": 1,
      "model": "MIDIToCVInterface",
      "pos": [
        0,
        0
      ],
      "params": [],
      "data": {
        "divisions": [
          24,
          6
        ],
        "midi": {
          "driver": -17545,
          "deviceName": "VST MIDI Input Device",
          "channel": -1
        }
      }
    },
    {
      "plugin": "Core",
      "version": "0.6.1",
      "vst2_unique_param_base_id": 2,
      "model": "AudioInterface",
      "pos": [
        75,
        0
      ],
      "params": [],
      "data": {
        "audio": {
          "driver": 0,
          "deviceName": "",
          "offset": 0,
          "maxChannels": 8,
          "sampleRate": 44100,
          "blockSize": 256
        }
      }
    },
    {
      "plugin": "AS",
      "version": "0.6.9",
      "vst2_unique_param_base_id": 21,
      "model": "ADSR",
      "pos": [
        64,
        0
      ],
      "params": [
        {
          "paramId": 0,
          "value": 0.0
        },
        {
          "paramId": 1,
          "value": 1.0
        },
        {
          "paramId": 2,
          "value": 0.807000637
        },
        {
          "paramId": 3,
          "value": 0.789001346
        }
      ]
    },
    {
      "plugin": "Fundamental",
      "version": "0.6.1",
      "vst2_unique_param_base_id": 26,
      "model": "VCA-1",
      "pos": [
        72,
        0
      ],
      "params": [
        {
          "paramId": 0,
          "value": 0.768501103
        },
        {
          "paramId": 1,
          "value": 1.0
        }
      ]
    },
    {
      "plugin": "Bogaudio",
      "version": "0.6.7",
      "vst2_unique_param_base_id": 29,
      "model": "Bogaudio-VCO",
      "pos": [
        19,
        0
      ],
      "params": [
        {
          "paramId": 0,
          "value": -0.162000015
        },
        {
          "paramId": 1,
          "value": 0.026002422
        },
        {
          "paramId": 2,
          "value": 0.0
        },
        {
          "paramId": 3,
          "value": -0.59000361
        },
        {
          "paramId": 4,
          "value": 0.0
        },
        {
          "paramId": 5,
          "value": 1.0
        }
      ]
    },
    {
      "plugin": "AS",
      "version": "0.6.9",
      "vst2_unique_param_base_id": 36,
      "model": "ADSR",
      "pos": [
        8,
        0
      ],
      "params": [
        {
          "paramId": 0,
          "value": 0.690000772
        },
        {
          "paramId": 1,
          "value": 0.555997014
        },
        {
          "paramId": 2,
          "value": 0.0
        },
        {
          "paramId": 3,
          "value": 0.5
        }
      ]
    },
    {
      "plugin": "LindenbergResearch",
      "version": "0.6.2b",
      "vst2_unique_param_base_id": 41,
      "model": "VCF",
      "pos": [
        52,
        0
      ],
      "params": [
        {
          "paramId": 0,
          "value": 0.459498137
        },
        {
          "paramId": 1,
          "value": 0.443249077
        },
        {
          "paramId": 2,
          "value": 0.0
        },
        {
          "paramId": 3,
          "value": 2.0
        },
        {
          "paramId": 5,
          "value": 0.0
        },
        {
          "paramId": 4,
          "value": 0.661498725
        },
        {
          "paramId": 6,
          "value": 0.0
        }
      ]
    },
    {
      "plugin": "AS",
      "version": "0.6.9",
      "vst2_unique_param_base_id": 49,
      "model": "ADSR",
      "pos": [
        44,
        0
      ],
      "params": [
        {
          "paramId": 0,
          "value": 0.0
        },
        {
          "paramId": 1,
          "value": 0.878002167
        },
        {
          "paramId": 2,
          "value": 0.626000762
        },
        {
          "paramId": 3,
          "value": 0.470999658
        }
      ]
    },
    {
      "plugin": "Fundamental",
      "version": "0.6.1",
      "vst2_unique_param_base_id": 54,
      "model": "VCA-1",
      "pos": [
        16,
        0
      ],
      "params": [
        {
          "paramId": 0,
          "value": 0.532501459
        },
        {
          "paramId": 1,
          "value": 1.0
        }
      ]
    },
    {
      "plugin": "Bogaudio",
      "version": "0.6.7",
      "vst2_unique_param_base_id": 57,
      "model": "Bogaudio-VCO",
      "pos": [
        29,
        0
      ],
      "params": [
        {
          "paramId": 0,
          "value": -0.162000015
        },
        {
          "paramId": 1,
          "value": 0.0680024102
        },
        {
          "paramId": 2,
          "value": 0.0
        },
        {
          "paramId": 3,
          "value": -0.119003564
        },
        {
          "paramId": 4,
          "value": 0.0
        },
        {
          "paramId": 5,
          "value": 1.0
        }
      ]
    },
    {
      "plugin": "Befaco",
      "version": "0.6.1",
      "vst2_unique_param_base_id": 70,
      "model": "Mixer",
      "pos": [
        39,
        0
      ],
      "params": [
        {
          "paramId": 0,
          "value": 0.53400135
        },
        {
          "paramId": 1,
          "value": 0.519001424
        },
        {
          "paramId": 2,
          "value": 0.0
        },
        {
          "paramId": 3,
          "value": 0.0
        }
      ]
    },
    {
      "plugin": "Fundamental",
      "version": "0.6.1",
      "vst2_unique_param_base_id": 75,
      "model": "LFO",
      "pos": [
        37,
        1
      ],
      "params": [
        {
          "paramId": 0,
          "value": 1.0
        },
        {
          "paramId": 1,
          "value": 1.0
        },
        {
          "paramId": 2,
          "value": 2.32299829
        },
        {
          "paramId": 3,
          "value": 0.0
        },
        {
          "paramId": 5,
          "value": 0.5
        },
        {
          "paramId": 4,
          "value": 0.0
        },
        {
          "paramId": 6,
          "value": 0.0
        }
      ]
    },
    {
      "plugin": "Befaco",
      "version": "0.6.1",
      "vst2_unique_param_base_id": 89,
      "model": "Mixer",
      "pos": [
        54,
        1
      ],
      "params": [
        {
          "paramId": 0,
          "value": 0.50250119
        },
        {
          "paramId": 1,
          "value": 0.517501175
        },
        {
          "paramId": 2,
          "value": 0.0
        },
        {
          "paramId": 3,
          "value": 0.0
        }
      ]
    },
    {
      "plugin": "Fundamental",
      "version": "0.6.1",
      "vst2_unique_param_base_id": 94,
      "model": "VCA-1",
      "pos": [
        85,
        0
      ],
      "params": [
        {
          "paramId": 0,
          "value": 0.531500578
        },
        {
          "paramId": 1,
          "value": 1.0
        }
      ]
    },
    {
      "plugin": "Fundamental",
      "version": "0.6.1",
      "vst2_unique_param_base_id": 97,
      "model": "VCA-1",
      "pos": [
        88,
        0
      ],
      "params": [
        {
          "paramId": 0,
          "value": 0.531500578
        },
        {
          "paramId": 1,
          "value": 1.0
        }
      ]
    },
    {
      "plugin": "Fundamental",
      "version": "0.6.1",
      "vst2_unique_param_base_id": 103,
      "model": "VCA-1",
      "pos": [
        49,
        1
      ],
      "params": [
        {
          "paramId": 0,
          "value": 0.579997659
        },
        {
          "paramId": 1,
          "value": 1.0
        }
      ]
    }
  ],
  "wires": [
    {
      "color": "#c91847",
      "outputModuleId": 0,
      "outputId": 1,
      "inputModuleId": 2,
      "inputId": 4
    },
    {
      "color": "#c91847",
      "outputModuleId": 0,
      "outputId": 0,
      "inputModuleId": 4,
      "inputId": 0
    },
    {
      "color": "#c91847",
      "outputModuleId": 0,
      "outputId": 1,
      "inputModuleId": 5,
      "inputId": 4
    },
    {
      "color": "#0c8e15",
      "outputModuleId": 5,
      "outputId": 0,
      "inputModuleId": 8,
      "inputId": 1
    },
    {
      "color": "#0986ad",
      "outputModuleId": 8,
      "outputId": 0,
      "inputModuleId": 4,
      "inputId": 2
    },
    {
      "color": "#c9b70e",
      "outputModuleId": 7,
      "outputId": 0,
      "inputModuleId": 6,
      "inputId": 1
    },
    {
      "color": "#0986ad",
      "outputModuleId": 0,
      "outputId": 1,
      "inputModuleId": 7,
      "inputId": 4
    },
    {
      "color": "#c9b70e",
      "outputModuleId": 8,
      "outputId": 0,
      "inputModuleId": 9,
      "inputId": 2
    },
    {
      "color": "#c91847",
      "outputModuleId": 0,
      "outputId": 0,
      "inputModuleId": 9,
      "inputId": 0
    },
    {
      "color": "#0986ad",
      "outputModuleId": 9,
      "outputId": 0,
      "inputModuleId": 10,
      "inputId": 1
    },
    {
      "color": "#c9b70e",
      "outputModuleId": 4,
      "outputId": 0,
      "inputModuleId": 10,
      "inputId": 0
    },
    {
      "color": "#c91847",
      "outputModuleId": 10,
      "outputId": 0,
      "inputModuleId": 6,
      "inputId": 0
    },
    {
      "color": "#0c8e15",
      "outputModuleId": 2,
      "outputId": 0,
      "inputModuleId": 12,
      "inputId": 0
    },
    {
      "color": "#c9b70e",
      "outputModuleId": 12,
      "outputId": 0,
      "inputModuleId": 3,
      "inputId": 0
    },
    {
      "color": "#c91847",
      "outputModuleId": 3,
      "outputId": 0,
      "inputModuleId": 1,
      "inputId": 0
    },
    {
      "color": "#0c8e15",
      "outputModuleId": 3,
      "outputId": 0,
      "inputModuleId": 1,
      "inputId": 1
    },
    {
      "color": "#c9b70e",
      "outputModuleId": 2,
      "outputId": 0,
      "inputModuleId": 15,
      "inputId": 0
    },
    {
      "color": "#0c8e15",
      "outputModuleId": 15,
      "outputId": 0,
      "inputModuleId": 12,
      "inputId": 1
    },
    {
      "color": "#0986ad",
      "outputModuleId": 11,
      "outputId": 0,
      "inputModuleId": 15,
      "inputId": 1
    },
    {
      "color": "#c9b70e",
      "outputModuleId": 6,
      "outputId": 0,
      "inputModuleId": 3,
      "inputId": 1
    }
  ]
}