{
  "version": "0.6.1",
  "oversampleFactor": 1.0,
  "oversampleQuality": 7.0,
  "oversampleNumIn": 8.0,
  "oversampleNumOut": 8.0,
  "idleDetect": 0.0,
  "modules": [
    {
      "plugin": "Core",
      "version": "0.6.1",
      "vst2_unique_param_base_id": 1,
      "model": "MIDIToCVInterface",
      "pos": [
        0,
        0
      ],
      "params": [],
      "data": {
        "divisions": [
          24,
          6
        ],
        "midi": {
          "driver": -17545,
          "deviceName": "VST MIDI Input Device",
          "channel": -1
        }
      }
    },
    {
      "plugin": "Core",
      "version": "0.6.1",
      "vst2_unique_param_base_id": 2,
      "model": "AudioInterface",
      "pos": [
        74,
        0
      ],
      "params": [],
      "data": {
        "audio": {
          "driver": 0,
          "deviceName": "",
          "offset": 0,
          "maxChannels": 8,
          "sampleRate": 44100,
          "blockSize": 256
        }
      }
    },
    {
      "plugin": "AS",
      "version": "0.6.9",
      "vst2_unique_param_base_id": 3,
      "model": "ADSR",
      "pos": [
        63,
        0
      ],
      "params": [
        {
          "paramId": 0,
          "value": 0.0240000021
        },
        {
          "paramId": 1,
          "value": 0.464999676
        },
        {
          "paramId": 2,
          "value": 0.213000149
        },
        {
          "paramId": 3,
          "value": 0.476999611
        }
      ]
    },
    {
      "plugin": "Fundamental",
      "version": "0.6.1",
      "vst2_unique_param_base_id": 8,
      "model": "VCA-1",
      "pos": [
        71,
        0
      ],
      "params": [
        {
          "paramId": 0,
          "value": 0.588500619
        },
        {
          "paramId": 1,
          "value": 1.0
        }
      ]
    },
    {
      "plugin": "Befaco",
      "version": "0.6.1",
      "vst2_unique_param_base_id": 11,
      "model": "EvenVCO",
      "pos": [
        8,
        0
      ],
      "params": [
        {
          "paramId": 0,
          "value": -0.0
        },
        {
          "paramId": 1,
          "value": 0.0
        },
        {
          "paramId": 2,
          "value": 0.0
        }
      ]
    },
    {
      "plugin": "Befaco",
      "version": "0.6.1",
      "vst2_unique_param_base_id": 15,
      "model": "EvenVCO",
      "pos": [
        16,
        0
      ],
      "params": [
        {
          "paramId": 0,
          "value": 0.0
        },
        {
          "paramId": 1,
          "value": -0.0419999436
        },
        {
          "paramId": 2,
          "value": 0.0
        }
      ]
    },
    {
      "plugin": "Befaco",
      "version": "0.6.1",
      "vst2_unique_param_base_id": 25,
      "model": "Mixer",
      "pos": [
        24,
        0
      ],
      "params": [
        {
          "paramId": 0,
          "value": 0.133500054
        },
        {
          "paramId": 1,
          "value": 0.0960000381
        },
        {
          "paramId": 2,
          "value": 0.123000085
        },
        {
          "paramId": 3,
          "value": 0.0
        }
      ]
    },
    {
      "plugin": "Fundamental",
      "version": "0.6.1",
      "vst2_unique_param_base_id": 30,
      "model": "VCO",
      "pos": [
        29,
        0
      ],
      "params": [
        {
          "paramId": 0,
          "value": 1.0
        },
        {
          "paramId": 1,
          "value": 1.0
        },
        {
          "paramId": 2,
          "value": 11.5019836
        },
        {
          "paramId": 3,
          "value": 0.342000216
        },
        {
          "paramId": 5,
          "value": 0.5
        },
        {
          "paramId": 4,
          "value": 0.0
        },
        {
          "paramId": 6,
          "value": 0.0
        }
      ]
    },
    {
      "plugin": "LindenbergResearch",
      "version": "0.6.2b",
      "vst2_unique_param_base_id": 38,
      "model": "VCF",
      "pos": [
        51,
        0
      ],
      "params": [
        {
          "paramId": 0,
          "value": 0.480996907
        },
        {
          "paramId": 1,
          "value": -0.0
        },
        {
          "paramId": 2,
          "value": 0.0
        },
        {
          "paramId": 3,
          "value": 2.0
        },
        {
          "paramId": 5,
          "value": 0.0
        },
        {
          "paramId": 4,
          "value": 0.615599215
        },
        {
          "paramId": 6,
          "value": 0.0
        }
      ]
    },
    {
      "plugin": "AS",
      "version": "0.6.9",
      "vst2_unique_param_base_id": 46,
      "model": "ADSR",
      "pos": [
        84,
        0
      ],
      "params": [
        {
          "paramId": 0,
          "value": 0.0240000021
        },
        {
          "paramId": 1,
          "value": 0.458000094
        },
        {
          "paramId": 2,
          "value": 0.215000615
        },
        {
          "paramId": 3,
          "value": 0.524000168
        }
      ]
    },
    {
      "plugin": "AS",
      "version": "0.6.9",
      "vst2_unique_param_base_id": 51,
      "model": "ADSR",
      "pos": [
        43,
        0
      ],
      "params": [
        {
          "paramId": 0,
          "value": 0.0
        },
        {
          "paramId": 1,
          "value": 0.635000825
        },
        {
          "paramId": 2,
          "value": 0.311000556
        },
        {
          "paramId": 3,
          "value": 0.434000194
        }
      ]
    }
  ],
  "wires": [
    {
      "color": "#c9b70e",
      "outputModuleId": 0,
      "outputId": 1,
      "inputModuleId": 2,
      "inputId": 4
    },
    {
      "color": "#0c8e15",
      "outputModuleId": 3,
      "outputId": 0,
      "inputModuleId": 1,
      "inputId": 0
    },
    {
      "color": "#0986ad",
      "outputModuleId": 2,
      "outputId": 0,
      "inputModuleId": 3,
      "inputId": 0
    },
    {
      "color": "#c9b70e",
      "outputModuleId": 0,
      "outputId": 0,
      "inputModuleId": 4,
      "inputId": 0
    },
    {
      "color": "#c91847",
      "outputModuleId": 0,
      "outputId": 0,
      "inputModuleId": 5,
      "inputId": 0
    },
    {
      "color": "#0c8e15",
      "outputModuleId": 4,
      "outputId": 3,
      "inputModuleId": 6,
      "inputId": 0
    },
    {
      "color": "#0986ad",
      "outputModuleId": 5,
      "outputId": 3,
      "inputModuleId": 6,
      "inputId": 1
    },
    {
      "color": "#c91847",
      "outputModuleId": 3,
      "outputId": 0,
      "inputModuleId": 1,
      "inputId": 1
    },
    {
      "color": "#0c8e15",
      "outputModuleId": 0,
      "outputId": 0,
      "inputModuleId": 7,
      "inputId": 0
    },
    {
      "color": "#0986ad",
      "outputModuleId": 7,
      "outputId": 2,
      "inputModuleId": 6,
      "inputId": 2
    },
    {
      "color": "#c9b70e",
      "outputModuleId": 6,
      "outputId": 0,
      "inputModuleId": 8,
      "inputId": 0
    },
    {
      "color": "#c91847",
      "outputModuleId": 8,
      "outputId": 0,
      "inputModuleId": 3,
      "inputId": 1
    },
    {
      "color": "#0c8e15",
      "outputModuleId": 0,
      "outputId": 1,
      "inputModuleId": 10,
      "inputId": 4
    },
    {
      "color": "#0986ad",
      "outputModuleId": 10,
      "outputId": 0,
      "inputModuleId": 8,
      "inputId": 1
    }
  ]
}